<svg aria-hidden="true" style="width:0;height:0;position:absolute;overflow:hidden" xmlns="http://www.w3.org/2000/svg"><defs><symbol id="icon-heart" viewBox="0 0 32 32"><path d="M29.193 5.265c-3.629-3.596-9.432-3.671-13.191-.288-3.76-3.383-9.561-3.308-13.192.288a9.42 9.42 0 0 0 0 13.415l11.053 10.941a3.042 3.042 0 0 0 4.278 0L29.194 18.68a9.418 9.418 0 0 0-.001-13.415zm-1.425 12.003L16.715 28.209a1.012 1.012 0 0 1-1.425 0L4.237 17.268a7.443 7.443 0 0 1 0-10.591c2.844-2.815 7.416-2.914 10.409-.222l1.356 1.22 1.355-1.22c2.994-2.692 7.566-2.594 10.41.222a7.444 7.444 0 0 1 .001 10.591zM9.253 7.501a.5.5 0 1 1 0 1h-.001a3.25 3.25 0 0 0-3.249 3.249v.001a.5.5 0 0 1-1 0 4.25 4.25 0 0 1 4.246-4.249l.004-.001z"/></symbol><symbol id="icon-search" viewBox="0 0 32 32"><path d="M20 .005c-6.627 0-12 5.373-12 12 0 2.026.507 3.933 1.395 5.608l-8.344 8.342.007.006A3.515 3.515 0 0 0 0 28.477a3.529 3.529 0 0 0 3.529 3.529c.985 0 1.874-.406 2.515-1.059l-.002-.002 8.341-8.34c1.676.891 3.586 1.4 5.617 1.4 6.627 0 12-5.373 12-12s-5.373-12-12-12zM4.795 29.697a1.75 1.75 0 0 1-1.266.543 1.764 1.764 0 0 1-1.765-1.764c0-.498.21-.943.543-1.266l-.009-.008 8.066-8.066a12.101 12.101 0 0 0 2.494 2.498l-8.063 8.063zM20 22.006c-5.522 0-10-4.479-10-10s4.478-10 10-10c5.521 0 10 4.478 10 10s-4.479 10-10 10zm0-17.001a.5.5 0 0 1 0 1 6 6 0 0 0-6 6 .5.5 0 0 1-1 0 7 7 0 0 1 7-7z"/></symbol><symbol id="icon-eye" viewBox="0 0 32 32"><path d="M31.965 15.776c-.01-.042-.004-.087-.02-.128-.006-.017-.021-.026-.027-.042-.01-.024-.008-.051-.021-.074-2.9-5.551-9.213-9.528-15.873-9.528-6.661 0-12.973 3.971-15.875 9.521-.013.023-.011.05-.021.074-.007.016-.021.025-.027.042-.016.041-.01.086-.02.128-.018.075-.035.147-.035.224s.018.148.035.224c.01.042.004.087.02.128.006.017.021.026.027.042.01.024.008.051.021.074 2.901 5.551 9.214 9.528 15.875 9.528 6.66 0 12.973-3.971 15.873-9.521.014-.023.012-.05.021-.074.006-.016.021-.025.027-.042.016-.041.01-.086.02-.128.017-.076.035-.148.035-.224s-.018-.149-.035-.224zm-15.942 8.212c-5.615 0-11.112-3.191-13.851-7.995 2.754-4.81 8.243-7.99 13.851-7.99 5.613 0 11.111 3.192 13.85 7.995-2.754 4.811-8.242 7.99-13.85 7.99zm0-11.989a.499.499 0 0 1 0 .999v.001a3.002 3.002 0 0 0-2.999 2.997.5.5 0 1 1-.999 0A3.998 3.998 0 0 1 16.017 12l.006-.001zM16 9a7 7 0 1 0 0 14 7 7 0 0 0 0-14zm0 13c-3.309 0-6-2.691-6-6s2.691-6 6-6 6 2.691 6 6-2.691 6-6 6z"/></symbol><symbol id="icon-bubble" viewBox="0 0 32 32"><path d="M16 7a.5.5 0 0 1 0 1c-5.327 0-10 2.804-10 6a.5.5 0 0 1-1 0c0-3.794 5.037-7 11-7zm0-5C7.163 2 0 7.373 0 14c0 4.127 2.779 7.766 7.008 9.926 0 .027-.008.045-.008.074 0 1.793-1.339 3.723-1.928 4.736h.002A.906.906 0 0 0 5.906 30c.094 0 .259-.025.255-.014 3.125-.512 6.069-3.383 6.753-4.215A21.18 21.18 0 0 0 16 26c8.835 0 16-5.373 16-12S24.836 2 16 2zm0 22c-.917 0-1.858-.07-2.796-.207a2 2 0 0 0-1.836.709c-.428.521-1.646 1.684-3.085 2.539.39-.895.695-1.898.716-2.932a2 2 0 0 0-1.081-1.965C4.212 20.252 2 17.207 2 14 2 8.486 8.28 4 16 4c7.718 0 14 4.486 14 10s-6.281 10-14 10z"/></symbol><symbol id="icon-like" viewBox="0 0 32 32"><path d="M29.164 10.472c-1.25-.328-4.189-.324-8.488-.438.203-.938.25-1.784.25-3.286C20.926 3.16 18.312 0 16 0c-1.633 0-2.979 1.335-3 2.977-.022 2.014-.645 5.492-4 7.256-.246.13-.95.477-1.053.522L8 10.8c-.525-.453-1.253-.8-2-.8H3c-1.654 0-3 1.346-3 3v16c0 1.654 1.346 3 3 3h3c1.19 0 2.186-.719 2.668-1.727.012.004.033.01.047.012l.239.062.046.012c.576.143 1.685.408 4.055.953.508.116 3.192.688 5.972.688h5.467c1.666 0 2.867-.641 3.582-1.928.01-.02.24-.469.428-1.076a3.33 3.33 0 0 0 .023-1.76c1.074-.738 1.42-1.854 1.645-2.58.377-1.191.264-2.086.002-2.727.604-.57 1.119-1.439 1.336-2.766a3.757 3.757 0 0 0-.389-2.372c.566-.636.824-1.436.854-2.176l.012-.209c.007-.131.013-.212.013-.5 0-1.263-.875-2.874-2.836-3.434zM7 29a1 1 0 0 1-1 1H3a1 1 0 0 1-1-1V13a1 1 0 0 1 1-1h3a1 1 0 0 1 1 1v16zm22.977-14.465C29.957 15.029 29.75 16 28 16h-2a.5.5 0 1 0 0 1h1.938c1.5 0 1.697 1.244 1.6 1.844-.124.746-.474 2.156-2.163 2.156H25a.499.499 0 1 0 0 1h1.969c1.688 0 1.539 1.287 1.297 2.055-.319 1.009-.514 1.945-2.641 1.945h-1.631a.499.499 0 1 0 0 1h1.568c1.094 0 1.145 1.035 1.031 1.406-.125.406-.273.707-.279.721-.302.545-.789.873-1.82.873h-5.467c-2.746 0-5.47-.623-5.54-.639-4.154-.957-4.373-1.031-4.634-1.105 0 0-.846-.143-.846-.881L8 13.563c0-.469.299-.893.794-1.042.062-.024.146-.05.206-.075 4.568-1.892 5.959-6.04 6-9.446.006-.479.375-1 1-1 1.057 0 2.926 2.122 2.926 4.748 0 2.371-.096 2.781-.926 5.252 10 0 9.93.144 10.812.375 1.094.313 1.188 1.219 1.188 1.531 0 .343-.01.293-.023.629zM4.5 26a1.5 1.5 0 1 0 .001 3.001A1.5 1.5 0 0 0 4.5 26zm0 2c-.275 0-.5-.225-.5-.5s.225-.5.5-.5.5.225.5.5-.225.5-.5.5z"/></symbol><symbol id="icon-folder-download" viewBox="0 0 32 32"><path d="m18 8-4-4H0v26h32V8H18zm-2 19-7-7h5v-8h4v8h5l-7 7z"/></symbol></defs></svg>